# xmcd
# Copyright (C) 1995-1998 Ti Kan
#
# Track frame offsets:
#       150
#       18649
#       30366
#       44383
#       74678
#       88119
#
# Disc length: 1902 seconds
#
# Revision: 0
# Processed by: cddbd v1.5.2PL0 Copyright (c) Steve Scherf et al.
# Submitted via: CD-Import v1.0
#
DISCID=4b076c06
DTITLE=Quicksilver Messenger Service - Quicksilver Messenger Service
DYEAR=1968
DGENRE=
TTITLE0=Pride Of Man
TTITLE1=Light Your Windows
TTITLE2=Dino's Song
TTITLE3=Gold And Silver
TTITLE4=It's Been Too Long
TTITLE5=The Fool
EXTD=
EXTT0=
EXTT1=
EXTT2=
EXTT3=
EXTT4=
EXTT5=
PLAYORDER=
